<svg width="23" height="15" viewBox="0 0 23 15" fill="none" xmlns="http://www.w3.org/2000/svg">
<path d="M14.5304 12.524C14.5304 12.524 12.2624 14.6543 9.14688 13.5544C9.14688 13.5568 12.4022 16.8346 14.5304 12.524Z" fill="#3A86FF"/>
<path d="M17.2834 4.55099C17.997 4.35864 18.7482 4.39688 19.4414 4.66086C19.5314 4.69215 19.6194 4.72966 19.7048 4.77317C19.7919 4.81467 19.8812 4.85252 19.966 4.89524C20.0507 4.93797 20.1332 4.99535 20.2157 5.04662L20.3405 5.12597L20.4551 5.21509C20.5329 5.27612 20.6131 5.33716 20.691 5.39942C20.7689 5.46168 20.8365 5.53615 20.9098 5.60573C21.0561 5.74646 21.1928 5.89823 21.3187 6.05986C21.8348 6.72319 22.1763 7.52067 22.3084 8.37077C22.3175 8.42327 22.3278 8.47698 22.3359 8.53069L22.3496 8.69184L22.3725 9.01534C22.3777 9.12392 22.3777 9.23271 22.3725 9.34128C22.3725 9.44993 22.3725 9.55858 22.3599 9.66723C22.2807 10.5404 21.995 11.378 21.5295 12.1014C21.4699 12.1906 21.4046 12.2748 21.3428 12.3615C21.282 12.4472 21.2162 12.5287 21.1458 12.6056C21.0095 12.7665 20.8629 12.917 20.7071 13.0561C20.6292 13.1244 20.5536 13.1977 20.4722 13.2612L20.2202 13.4431C20.179 13.4724 20.1366 13.5041 20.0943 13.5322L19.9614 13.6091L19.6945 13.7605C19.604 13.8069 19.5089 13.8435 19.4173 13.8825C19.3255 13.9251 19.2314 13.9618 19.1355 13.9924C18.9457 14.0565 18.7521 14.1071 18.5559 14.1438C17.7886 14.2949 16.9972 14.2228 16.2651 13.935C15.5731 13.664 14.9742 13.1763 14.5469 12.536C14.8565 12.6851 15.1777 12.8052 15.5068 12.8949C15.663 12.9376 15.8213 12.971 15.981 12.995C16.1366 13.0201 16.2934 13.0356 16.4506 13.0414C16.6033 13.05 16.7562 13.05 16.9088 13.0414C17.0591 13.0328 17.2087 13.0137 17.3567 12.9841C17.5021 12.9474 17.6476 12.9328 17.7874 12.8815L17.9958 12.818C18.0634 12.7887 18.131 12.7619 18.1974 12.735C18.4617 12.6273 18.715 12.4911 18.9534 12.3285C19.4098 11.9996 19.7993 11.5761 20.0988 11.0833L20.1996 10.8965L20.2512 10.8038C20.2672 10.7708 20.2787 10.7378 20.2936 10.7049L20.3806 10.5108C20.4092 10.4461 20.4264 10.3753 20.4516 10.3081L20.4871 10.208C20.5009 10.1751 20.5112 10.1407 20.5181 10.1055C20.5352 10.0359 20.5513 9.96632 20.5707 9.89795C20.5788 9.86255 20.5902 9.82837 20.5971 9.79297L20.6131 9.68676C20.6246 9.61596 20.636 9.54515 20.6486 9.47313C20.6612 9.4011 20.6601 9.32908 20.667 9.25705L20.6761 9.1484C20.6815 9.11249 20.6834 9.07608 20.6819 9.03975V8.71137C20.6819 8.67597 20.675 8.63934 20.6715 8.60272L20.6521 8.3842C20.6444 8.31162 20.6334 8.2395 20.6189 8.16813C20.604 8.0961 20.5971 8.02163 20.5788 7.95083L20.5226 7.73719L20.4963 7.62855L20.4585 7.52356C20.4344 7.45398 20.4092 7.38439 20.3863 7.31237C20.3634 7.24034 20.3268 7.17564 20.297 7.10606C20.2692 7.0361 20.2375 6.96802 20.2019 6.90219C20.1252 6.77401 20.0633 6.63118 19.9728 6.5091C19.9293 6.44562 19.8904 6.3797 19.8445 6.31744C19.7987 6.25518 19.7506 6.19536 19.7037 6.13555L19.6326 6.04277L19.5536 5.95853C19.5009 5.90116 19.4482 5.845 19.3955 5.78518C19.3428 5.72537 19.281 5.67898 19.2237 5.62404C19.1668 5.56867 19.1071 5.51651 19.045 5.46779C18.9213 5.36535 18.792 5.27078 18.6579 5.18457L18.4517 5.05028C18.3795 5.01366 18.3074 4.97459 18.2329 4.93553C18.0837 4.85719 17.9308 4.78711 17.7748 4.72556C17.6955 4.69135 17.6144 4.662 17.5319 4.63766C17.4506 4.61081 17.3681 4.58151 17.2834 4.55099Z" fill="#FDBC0B"/>
<path d="M5.44566 3.93896C5.44566 3.93896 1.80663 4.46756 0.917778 7.29242C0.0495427 10.0514 1.14686 12.853 3.75157 14.0518C6.59109 15.3568 11.5645 13.6856 14.4636 8.55103L15.2517 9.55572L16.3169 5.70542L13.1166 7.7087L14.1567 8.26415C14.1567 8.26415 9.42374 14.4461 4.32314 12.4245C3.72001 12.1601 3.20813 11.7038 2.85738 11.1178C2.50662 10.5318 2.33408 9.84479 2.36331 9.15043C2.40798 6.63931 4.26587 5.82383 5.96912 5.53451L5.89352 5.35384" fill="#9635F0"/>
<path d="M15.3139 3.01553C15.3139 3.01553 13.6576 -0.237814 9.6131 0.312753C5.56859 0.863319 3.92719 4.55614 6.95571 6.40073C6.95571 6.40073 5.11156 2.67128 9.94413 1.41877C12.9956 0.628932 15.3139 3.01553 15.3139 3.01553Z" fill="#FF006E"/>
</svg>
